<svg width="24" height="24" viewBox="0 0 24 24" fill="none" xmlns="http://www.w3.org/2000/svg">
<path d="M19 11.5C19 11.5 17 13.67 17 15C17 15.5304 17.2107 16.0391 17.5858 16.4142C17.9609 16.7893 18.4696 17 19 17C19.5304 17 20.0391 16.7893 20.4142 16.4142C20.7893 16.0391 21 15.5304 21 15C21 13.67 19 11.5 19 11.5ZM5.21 10L10 5.21L14.79 10M16.56 8.94L7.62 0L6.21 1.41L8.59 3.79L3.44 8.94C2.85 9.5 2.85 10.47 3.44 11.06L8.94 16.56C9.23 16.85 9.62 17 10 17C10.38 17 10.77 16.85 11.06 16.56L16.56 11.06C17.15 10.47 17.15 9.5 16.56 8.94Z" fill="#17171B"/>
</svg>
