<svg width="19" height="19" viewBox="0 0 19 19" fill="none" xmlns="http://www.w3.org/2000/svg">
<path d="M9.49998 17.4166C5.1379 17.4166 1.58331 13.8621 1.58331 9.49998C1.58331 5.1379 5.1379 1.58331 9.49998 1.58331C13.8621 1.58331 17.4166 4.78165 17.4166 8.70831C17.4166 11.3287 15.2871 13.4583 12.6666 13.4583H11.2654C11.0437 13.4583 10.8696 13.6325 10.8696 13.8541C10.8696 13.9491 10.9091 14.0362 10.9725 14.1154C11.2971 14.4875 11.4791 14.9546 11.4791 15.4375C11.4791 15.9624 11.2706 16.4658 10.8995 16.837C10.5283 17.2081 10.0249 17.4166 9.49998 17.4166ZM9.49998 3.16665C6.00873 3.16665 3.16665 6.00873 3.16665 9.49998C3.16665 12.9912 6.00873 15.8333 9.49998 15.8333C9.72165 15.8333 9.89581 15.6591 9.89581 15.4375C9.89335 15.3348 9.85401 15.2364 9.78498 15.1604C9.4604 14.7962 9.28623 14.3291 9.28623 13.8541C9.28623 13.3292 9.49475 12.8258 9.86591 12.4547C10.2371 12.0835 10.7405 11.875 11.2654 11.875H12.6666C14.4162 11.875 15.8333 10.4579 15.8333 8.70831C15.8333 5.65248 12.9912 3.16665 9.49998 3.16665Z" fill="#17171B"/>
<path d="M5.14581 10.2917C5.80165 10.2917 6.33331 9.76003 6.33331 9.10419C6.33331 8.44835 5.80165 7.91669 5.14581 7.91669C4.48997 7.91669 3.95831 8.44835 3.95831 9.10419C3.95831 9.76003 4.48997 10.2917 5.14581 10.2917Z" fill="#17171B"/>
<path d="M7.52081 7.125C8.17665 7.125 8.70831 6.59334 8.70831 5.9375C8.70831 5.28166 8.17665 4.75 7.52081 4.75C6.86497 4.75 6.33331 5.28166 6.33331 5.9375C6.33331 6.59334 6.86497 7.125 7.52081 7.125Z" fill="#17171B"/>
<path d="M11.4792 7.125C12.135 7.125 12.6667 6.59334 12.6667 5.9375C12.6667 5.28166 12.135 4.75 11.4792 4.75C10.8233 4.75 10.2917 5.28166 10.2917 5.9375C10.2917 6.59334 10.8233 7.125 11.4792 7.125Z" fill="#17171B"/>
<path d="M13.8542 10.2917C14.51 10.2917 15.0417 9.76003 15.0417 9.10419C15.0417 8.44835 14.51 7.91669 13.8542 7.91669C13.1983 7.91669 12.6667 8.44835 12.6667 9.10419C12.6667 9.76003 13.1983 10.2917 13.8542 10.2917Z" fill="#17171B"/>
</svg>
