<svg width="18" height="18" viewBox="0 0 18 18" fill="current" xmlns="http://www.w3.org/2000/svg">
<path d="M16.5 9C16.5 13.1423 13.1423 16.5 9 16.5C4.85775 16.5 1.5 13.1423 1.5 9C1.5 4.85775 4.85775 1.5 9 1.5V3C7.58907 3.00011 6.22331 3.49745 5.14269 4.40462C4.06206 5.3118 3.3357 6.57078 3.09123 7.96037C2.84675 9.34996 3.0998 10.7812 3.80592 12.0028C4.51204 13.2243 5.62605 14.1579 6.95222 14.6396C8.27839 15.1212 9.73188 15.1201 11.0573 14.6364C12.3827 14.1528 13.4953 13.2175 14.1996 11.9949C14.9038 10.7723 15.1547 9.34058 14.9081 7.95137C14.6615 6.56215 13.9333 5.30428 12.8512 4.39875L11.25 6V1.5H15.75L13.9147 3.33525C14.727 4.03859 15.3783 4.90857 15.8244 5.88603C16.2705 6.8635 16.5009 7.92555 16.5 9Z" fill="current"/>
</svg>
