<svg width="20" height="16" viewBox="0 0 20 16" fill="none" xmlns="http://www.w3.org/2000/svg">
<path d="M15 11H13C12.7167 11 12.4793 11.096 12.288 11.288C12.0967 11.48 12.0007 11.7173 12 12C11.9993 12.2827 12.0953 12.5203 12.288 12.713C12.4807 12.9057 12.718 13.0013 13 13H16C16.2833 13 16.521 12.904 16.713 12.712C16.905 12.52 17.0007 12.2827 17 12V9C17 8.71667 16.904 8.47933 16.712 8.288C16.52 8.09667 16.2827 8.00067 16 8C15.7173 7.99933 15.48 8.09533 15.288 8.288C15.096 8.48067 15 8.718 15 9V11ZM5 5H7C7.28333 5 7.521 4.904 7.713 4.712C7.905 4.52 8.00067 4.28267 8 4C7.99933 3.71733 7.90333 3.48 7.712 3.288C7.52067 3.096 7.28333 3 7 3H4C3.71667 3 3.47933 3.096 3.288 3.288C3.09667 3.48 3.00067 3.71733 3 4V7C3 7.28333 3.096 7.521 3.288 7.713C3.48 7.905 3.71733 8.00067 4 8C4.28267 7.99933 4.52033 7.90333 4.713 7.712C4.90567 7.52067 5.00133 7.28333 5 7V5ZM2 16C1.45 16 0.979333 15.8043 0.588 15.413C0.196667 15.0217 0.000666667 14.5507 0 14V2C0 1.45 0.196 0.979333 0.588 0.588C0.98 0.196666 1.45067 0.000666667 2 0H18C18.55 0 19.021 0.196 19.413 0.588C19.805 0.98 20.0007 1.45067 20 2V14C20 14.55 19.8043 15.021 19.413 15.413C19.0217 15.805 18.5507 16.0007 18 16H2ZM2 14H18V2H2V14Z" fill="#17171B"/>
</svg>
