<svg width="20" height="20" viewBox="0 0 20 20" fill="none" xmlns="http://www.w3.org/2000/svg">
<path d="M11.4297 15.9289L6.7422 3.42892C6.68079 3.2651 6.57084 3.12393 6.42704 3.02427C6.28325 2.92461 6.11246 2.87122 5.93751 2.87122C5.76256 2.87122 5.59177 2.92461 5.44798 3.02427C5.30419 3.12393 5.19424 3.2651 5.13282 3.42892L0.445324 15.9289C0.367796 16.1418 0.377453 16.3766 0.472195 16.5824C0.566937 16.7882 0.739099 16.9482 0.951232 17.0277C1.16337 17.1072 1.39831 17.0998 1.60496 17.0069C1.8116 16.9141 1.97324 16.7434 2.0547 16.532L3.4672 12.7656C3.47276 12.7508 3.48274 12.7379 3.49579 12.7288C3.50884 12.7198 3.52435 12.7149 3.54025 12.7149H8.33478C8.35067 12.7149 8.36618 12.7198 8.37924 12.7288C8.39229 12.7379 8.40226 12.7508 8.40782 12.7656L9.82032 16.532C9.90179 16.7434 10.0634 16.9141 10.2701 17.0069C10.4767 17.0998 10.7117 17.1072 10.9238 17.0277C11.1359 16.9482 11.3081 16.7882 11.4028 16.5824C11.4976 16.3766 11.5072 16.1418 11.4297 15.9289ZM4.17032 10.8899L5.86447 6.37228C5.87009 6.35746 5.88009 6.3447 5.89313 6.33569C5.90618 6.32669 5.92166 6.32186 5.93751 6.32186C5.95337 6.32186 5.96884 6.32669 5.98189 6.33569C5.99494 6.3447 6.00494 6.35746 6.01056 6.37228L7.7047 10.8906C7.70911 10.9024 7.7106 10.9151 7.70904 10.9277C7.70748 10.9402 7.70292 10.9521 7.69574 10.9625C7.68856 10.9728 7.67899 10.9813 7.66783 10.9872C7.65667 10.993 7.64426 10.9961 7.63165 10.9961H4.24337C4.23077 10.9961 4.21836 10.993 4.2072 10.9872C4.19604 10.9813 4.18646 10.9728 4.17928 10.9625C4.17211 10.9521 4.16754 10.9402 4.16598 10.9277C4.16442 10.9151 4.16591 10.9024 4.17032 10.8906V10.8899ZM15.6551 6.62111C14.0254 6.60939 12.566 7.55353 11.9442 9.01955C11.8551 9.22934 11.8529 9.46593 11.9383 9.67727C12.0236 9.88862 12.1894 10.0574 12.3992 10.1465C12.609 10.2356 12.8456 10.2377 13.057 10.1524C13.2683 10.067 13.4371 9.90121 13.5262 9.69142C13.8731 8.87541 14.6891 8.34611 15.609 8.33986C16.8715 8.33127 17.8906 9.37502 17.8906 10.6387C17.8906 10.6539 17.8847 10.6685 17.8742 10.6794C17.8636 10.6904 17.8492 10.6968 17.834 10.6973C16.9777 10.7211 15.9621 10.7781 15.0559 10.8848C12.9172 11.1363 11.6406 12.3024 11.6406 14.0039C11.6406 14.9098 11.9828 15.7227 12.6043 16.2961C13.1875 16.8332 13.9844 17.1289 14.8438 17.1289C16.0547 17.1289 17.0973 16.8164 17.8883 16.2219H17.8906C17.8902 16.3347 17.9119 16.4466 17.9546 16.551C17.9974 16.6555 18.0603 16.7505 18.1397 16.8306C18.2192 16.9108 18.3136 16.9745 18.4177 17.0181C18.5218 17.0618 18.6334 17.0845 18.7463 17.085C18.8592 17.0855 18.971 17.0637 19.0755 17.021C19.1799 16.9782 19.2749 16.9154 19.3551 16.8359C19.4352 16.7564 19.4989 16.662 19.5426 16.5579C19.5862 16.4538 19.6089 16.3422 19.6094 16.2293V10.6434C19.6094 8.44885 17.8516 6.63713 15.6551 6.62111ZM14.8438 15.4102C14.159 15.4102 13.3594 15.0418 13.3594 14.0039C13.3594 13.5871 13.509 13.2953 13.8449 13.0574C14.1719 12.8258 14.6731 12.6606 15.2567 12.5918C16.0817 12.4945 17.0074 12.441 17.8012 12.4172C17.8118 12.4172 17.8223 12.4193 17.832 12.4235C17.8418 12.4277 17.8505 12.4338 17.8579 12.4415C17.8652 12.4491 17.8708 12.4582 17.8745 12.4681C17.8782 12.4781 17.8798 12.4887 17.8793 12.4992C17.7734 14.457 16.7758 15.4102 14.8438 15.4102Z" fill="black"/>
</svg>
