<svg width="31" height="31" viewBox="0 0 31 31" fill="current" xmlns="http://www.w3.org/2000/svg">
<path d="M15.5 2.58331C13.8038 2.58331 12.1241 2.91741 10.557 3.56654C8.98989 4.21566 7.56597 5.16709 6.36655 6.36652C3.9442 8.78886 2.58334 12.0743 2.58334 15.5C2.58334 21.2091 6.29043 26.0529 11.4183 27.7708C12.0642 27.8741 12.2708 27.4737 12.2708 27.125V24.9421C8.69293 25.7171 7.93084 23.2112 7.93084 23.2112C7.33668 21.7129 6.49709 21.3125 6.49709 21.3125C5.32168 20.5116 6.58751 20.5375 6.58751 20.5375C7.87918 20.6279 8.56376 21.8679 8.56376 21.8679C9.68751 23.8312 11.5863 23.25 12.3225 22.94C12.4388 22.1004 12.7746 21.5321 13.1363 21.2091C10.2688 20.8862 7.25918 19.7754 7.25918 14.8541C7.25918 13.4204 7.75001 12.2708 8.58959 11.3537C8.46043 11.0308 8.00834 9.68748 8.71876 7.94373C8.71876 7.94373 9.80376 7.59498 12.2708 9.26123C13.2913 8.97706 14.4021 8.83498 15.5 8.83498C16.5979 8.83498 17.7088 8.97706 18.7292 9.26123C21.1963 7.59498 22.2813 7.94373 22.2813 7.94373C22.9917 9.68748 22.5396 11.0308 22.4104 11.3537C23.25 12.2708 23.7408 13.4204 23.7408 14.8541C23.7408 19.7883 20.7183 20.8733 17.8379 21.1962C18.3029 21.5966 18.7292 22.3846 18.7292 23.5858V27.125C18.7292 27.4737 18.9358 27.8871 19.5946 27.7708C24.7225 26.04 28.4167 21.2091 28.4167 15.5C28.4167 13.8037 28.0826 12.1241 27.4335 10.557C26.7843 8.98986 25.8329 7.56594 24.6335 6.36652C23.4341 5.16709 22.0101 4.21566 20.443 3.56654C18.8759 2.91741 17.1963 2.58331 15.5 2.58331Z" fill="current"/>
</svg>
