<svg width="31" height="31" viewBox="0 0 31 31" fill="current" xmlns="http://www.w3.org/2000/svg">
<path d="M24.5417 3.875C25.2268 3.875 25.8839 4.14717 26.3684 4.63164C26.8528 5.11611 27.125 5.77319 27.125 6.45833V24.5417C27.125 25.2268 26.8528 25.8839 26.3684 26.3684C25.8839 26.8528 25.2268 27.125 24.5417 27.125H6.45833C5.77319 27.125 5.11611 26.8528 4.63164 26.3684C4.14717 25.8839 3.875 25.2268 3.875 24.5417V6.45833C3.875 5.77319 4.14717 5.11611 4.63164 4.63164C5.11611 4.14717 5.77319 3.875 6.45833 3.875H24.5417ZM23.8958 23.8958V17.05C23.8958 15.9332 23.4522 14.8622 22.6625 14.0725C21.8728 13.2828 20.8018 12.8392 19.685 12.8392C18.5871 12.8392 17.3083 13.5108 16.6883 14.5183V13.0846H13.0846V23.8958H16.6883V17.5279C16.6883 16.5333 17.4892 15.7196 18.4838 15.7196C18.9634 15.7196 19.4233 15.9101 19.7624 16.2492C20.1016 16.5884 20.2921 17.0483 20.2921 17.5279V23.8958H23.8958ZM8.88667 11.0567C9.46219 11.0567 10.0141 10.828 10.4211 10.4211C10.828 10.0141 11.0567 9.46219 11.0567 8.88667C11.0567 7.68542 10.0879 6.70375 8.88667 6.70375C8.30772 6.70375 7.75249 6.93373 7.34311 7.34311C6.93373 7.75249 6.70375 8.30772 6.70375 8.88667C6.70375 10.0879 7.68542 11.0567 8.88667 11.0567ZM10.6821 23.8958V13.0846H7.10417V23.8958H10.6821Z" fill="current"/>
</svg>
