<svg width="23" height="23" viewBox="0 0 23 23" fill="current" xmlns="http://www.w3.org/2000/svg">
<path d="M2.875 0C1.28225 0 0 1.28225 0 2.875V20.125C0 21.7177 1.28225 23 2.875 23H20.125C21.7177 23 23 21.7177 23 20.125V2.875C23 1.28225 21.7177 0 20.125 0H2.875ZM9.47121 5.98958C10.075 5.98958 10.4343 6.27708 10.5493 6.85208L11.9514 14.8091C12.3967 14.2194 12.7628 13.7233 13.0496 13.3208C13.5264 12.6346 13.938 11.9053 14.2792 11.1425C14.6676 10.3228 14.8618 9.58972 14.8618 8.94317C14.8618 8.55536 14.7539 8.24646 14.5379 8.01646C14.3367 7.7724 13.9556 7.4635 13.3946 7.08975C13.9696 6.35631 14.6884 5.98958 15.5509 5.98958C16.0109 5.98958 16.392 6.12631 16.6942 6.39975C17.0104 6.67256 17.1682 7.07506 17.1676 7.60725C17.1676 8.4985 16.7938 9.61272 16.0463 10.9499C15.3135 12.2724 13.8981 14.2632 11.8 16.9223L9.66575 17.0717L8.02604 7.84492H5.86979V6.93833C6.44479 6.75114 7.12042 6.54989 7.89667 6.33458C8.67292 6.10458 9.19776 5.98958 9.47121 5.98958Z" fill="current"/>
</svg>
